<?xml version="1.0" encoding="utf-8"?><!-- Uploaded to: SVG Repo, www.svgrepo.com, Generator: SVG Repo Mixer Tools -->
<svg fill="#000000" width="800px" height="800px" viewBox="0 -8.56 105 105" xmlns="http://www.w3.org/2000/svg">
  <path id="_support-person_" data-name="
support-person
" d="M1183.552,975.061c.236-3.374.392-6.757.731-10.12a44.367,44.367,0,0,0-.771-11.4c-.483-3.069-.134-5.854,1.967-8.283a6.776,6.776,0,0,0,1.016-1.661,12.076,12.076,0,0,1,4.813-5.234c1.658-1.049,3.39-1.988,5.114-2.932a16.6,16.6,0,0,1,6.547-1.934c.87-.08,1.734-.241,2.6-.286a20.447,20.447,0,0,1,3.917-.036c2.064.306,4.058.644,6.12-.117a3.837,3.837,0,0,1,2.887.242,23.149,23.149,0,0,1,2.64,1.3,36.887,36.887,0,0,1,4.3,2.99,17.339,17.339,0,0,1,3.317,3.586,25.725,25.725,0,0,1,3.641,9.743,21.024,21.024,0,0,1-.465,9.708,3.788,3.788,0,0,0-.183,1.6,120.63,120.63,0,0,1,1.229,12.7c.013.217-.005.507.121.626.2.189.584.434.755.355,1.694-.764,3.373-1.56,5.014-2.43a1.389,1.389,0,0,0,.6-1.042c-.01-1.308-.135-2.615-.243-3.919-.081-.98-.244-1.95-.295-2.927a70.646,70.646,0,0,0-.683-7.5c-.568-3.554-.953-7.137-1.434-10.7a19.307,19.307,0,0,0-2.15-6.159,31.337,31.337,0,0,0-6.233-8.342c-3.627-3.5-8.188-4.909-12.8-6.25a5.848,5.848,0,0,0-3.536.055,27.893,27.893,0,0,1-7.032,1.437,46.179,46.179,0,0,0-13.118,3.89,14.007,14.007,0,0,0-5.933,5c-2.292,3.333-4.376,6.833-5.114,10.9-.466,2.568-.718,5.177-1.032,7.772-.21,1.73-.4,3.47-.514,5.208a13.927,13.927,0,0,0,0,3.592,34.561,34.561,0,0,1,.51,6.523c.049,5.575,0,11.152.059,16.73a15.48,15.48,0,0,1-1.157,5.738,3.93,3.93,0,0,1-2.431,2.489,21.86,21.86,0,0,1-3.778,1.011,12.125,12.125,0,0,1-6.1-.854,8.769,8.769,0,0,1-4.841-4.66c-.612-1.278-1.165-2.585-1.778-3.865a26.722,26.722,0,0,1-2.261-9.5,22.339,22.339,0,0,1,1.7-10.889,9.491,9.491,0,0,0,.784-2.15,7.2,7.2,0,0,1,3.212-4.744c.527-.385.963-.892,1.472-1.308,2.31-1.885,4.852-2.886,7.9-2.131.955.237,1.175.07,1.381-.861.26-1.174.352-2.381.657-3.537,1.754-6.67,3.853-13.206,7.818-18.97a19.253,19.253,0,0,1,1.617-2.06,30.434,30.434,0,0,1,15.1-9.335,64.713,64.713,0,0,1,16.821-2.182,7.858,7.858,0,0,1,1.958.1c4.755,1.294,9.463,2.706,13.244,6.125,1.052.951,2.173,1.826,3.226,2.774a19.993,19.993,0,0,1,5.4,8.486,26.389,26.389,0,0,1,1.656,6.987,2.4,2.4,0,0,0,.028.328,71.37,71.37,0,0,1,1.458,8.038,1.124,1.124,0,0,0,1.382,1.047c.754-.109,1.5-.3,2.249-.429a10.237,10.237,0,0,1,6.391.838,8.18,8.18,0,0,1,2.411,1.644,25.832,25.832,0,0,1,6.274,11.7,33.634,33.634,0,0,1,.653,10.419,5.14,5.14,0,0,1-.327,1.6c-1,2.406-2.005,4.816-3.105,7.177a12.51,12.51,0,0,1-3.113,3.773,5.655,5.655,0,0,1-2.9,1.415,24.286,24.286,0,0,1-6.844.431,14.578,14.578,0,0,1-2.569-.473,4.3,4.3,0,0,1-3.3-4.025c-.145-1.409-.074-2.84-.117-4.26a10.944,10.944,0,0,0-.153-1.944c-.048-.229-.547-.594-.695-.534-1.921.761-3.83,1.561-5.7,2.438-.308.145-.508.687-.6,1.082-.272,1.17-.522,2.345-.675,3.531a10.5,10.5,0,0,1-2.163,5.379c-.749.937-1.364,1.982-2.02,2.989a16.434,16.434,0,0,1-5.716,5.3c-2.649,1.514-5.377,2.893-8.041,4.383a13.085,13.085,0,0,1-6.935,1.543,22.215,22.215,0,0,1-7.373-1.284,40.4,40.4,0,0,0-4.384-1.3,4.925,4.925,0,0,1-2.467-1.509,53.25,53.25,0,0,1-5.887-7.86,4.021,4.021,0,0,1-.439-.878c-1.58-4.652-3.061-9.333-3.151-14.309-.034-1.86-.006-3.721-.006-5.576C1183.643,975.067,1183.6,975.063,1183.552,975.061Zm-16.178-2.088a1.193,1.193,0,0,0-.256.091c-.045.027-.058.108-.085.163l.244-.35c.408-.016.7-.155.7-.627a3.038,3.038,0,0,0,.931-.127c.543-.264,1.112-.375,1.4.189a2.089,2.089,0,0,1,.136,1.517,12.975,12.975,0,0,1-1.254,2.256c-1.087,1.742-2.217,3.455-3.281,5.206a7.315,7.315,0,0,0-.514,1.487c-.655.238-.539.832-.617,1.335a1.24,1.24,0,0,0-.233.1.424.424,0,0,0-.108.123l.248-.319a1.18,1.18,0,0,0,.633-1.3,4.958,4.958,0,0,0,1.1-.519c1.183-.954,2.324-1.966,3.492-2.94.247-.21.99.085,1.066.446a2.247,2.247,0,0,1,.053,1.252c-.523,1.2-1.138,2.353-1.755,3.508-.567,1.056-1.2,2.081-1.766,3.136a3.192,3.192,0,0,0-.245.922.6.6,0,0,0,.093.3c.127.291.3.314.5.057.795-1.036,1.565-2.094,2.388-3.1a1.719,1.719,0,0,1,1.816-.379,2,2,0,0,1,.879,1.652,6.156,6.156,0,0,1-.307,1.272c-.349.917-.754,1.812-1.107,2.724a2.513,2.513,0,0,0-.179.945c0,.164.23.463.351.461a5.562,5.562,0,0,0,1.592-.187c1.685-.541,2.169-1.147,1.881-2.9a28.9,28.9,0,0,1-.067-4.876c0-1.963.006-3.931-.078-5.89-.1-2.285-.312-4.566-.434-6.851-.089-1.634-.066-3.275-.18-4.907a13.61,13.61,0,0,0-.5-2.882,2.066,2.066,0,0,0-.98-1.216,5.134,5.134,0,0,0-4.432-.066,8.818,8.818,0,0,0-4.247,5.183c-.019.059.1.188.183.25s.214.1.26.061c.686-.528,1.327-1.125,2.047-1.6a13.809,13.809,0,0,1,2.289-1.22,2.04,2.04,0,0,1,1.994.837,1.361,1.361,0,0,1-.072,1.544c-.758,1.062-1.573,2.085-2.372,3.123-.33.428-.73.821-.569,1.441C1167.545,972.274,1167.379,972.548,1167.374,972.973Zm79.335,6.473a1.281,1.281,0,0,0,.6-1.349c.819-.22,1.629-.484,2.457-.645a1.426,1.426,0,0,1,1.571,1.294,4.826,4.826,0,0,1-.955,3.056c-.849,1.394-1.742,2.762-2.582,4.16-.34.565.2.717.551.921a1.126,1.126,0,0,0,1.486-.193,1.907,1.907,0,0,1,2.629-.411.932.932,0,0,0,1.168-.167,7.142,7.142,0,0,0,2.189-3.929,21.921,21.921,0,0,0,.355-10.02c-.543-2.77-1.112-5.538-1.69-8.305-.11-.529-.335-1.032-.481-1.558a6.656,6.656,0,0,0-2.256-3.133,4.323,4.323,0,0,0-3.408-.742c-1.086.07-.772,1.155-1.2,1.7a10.087,10.087,0,0,1-1.513,1.7,2.549,2.549,0,0,0-.928,2.617,7.953,7.953,0,0,0,.273.922,2.924,2.924,0,0,0,.825-.328c.764-.606,1.445-1.333,2.253-1.87a4.5,4.5,0,0,1,1.814-.621,1.458,1.458,0,0,1,1.453,1.982,16.073,16.073,0,0,1-.8,1.419q-.894,1.533-1.8,3.065a1.186,1.186,0,0,0-.235.121c-.039.032-.048.1-.072.155.076-.119.151-.24.225-.359a7.918,7.918,0,0,1,1.587.231c1.523.548,1.824,1.828,1.2,2.791-.766,1.174-1.54,2.339-2.3,3.515-.582.9-1.15,1.81-1.724,2.716a1.421,1.421,0,0,0-.6,1.366c-.431.007-.618.276-.7.654a5.515,5.515,0,0,0-.746.539c-.092.092-.062.312-.088.475.173-.065.44-.085.5-.2a4.441,4.441,0,0,0,.243-.9C1246.244,979.887,1246.477,979.665,1246.709,979.446Zm-18.155-15.5c-.065-1.408-.121-2.938-.214-4.467a15.763,15.763,0,0,0-.251-1.945,1.2,1.2,0,0,0-1.078-1.057c-.326-.038-.656-.008-.983-.036a18.713,18.713,0,0,1-13.158-6.47c-.5-.579-.963-1.193-1.493-1.742a.748.748,0,0,0-1.15.011c-.973,1.031-1.848,2.163-2.885,3.122a35.412,35.412,0,0,1-15.376,8.389c-3.317.859-2.86.714-2.854,3.962a8.982,8.982,0,0,0,.048.983,100.963,100.963,0,0,1,1.017,13.044,9.514,9.514,0,0,0,.136,1.633,44.14,44.14,0,0,0,5.5,15.654,9.606,9.606,0,0,0,3.787,3.993c1.742.882,3.529,1.675,5.3,2.495a1.737,1.737,0,0,0,.642.127,13.679,13.679,0,0,0,4.868-.3,28.853,28.853,0,0,0,10.681-5.5c2.843-2.435,4.464-5.579,5.918-8.885a.39.39,0,0,0,.007-.317c-.172-.237-.382-.641-.571-.637a14.575,14.575,0,0,0-2.927.256,38.882,38.882,0,0,1-7.368,1.451,1.223,1.223,0,0,0-.868.812,8.779,8.779,0,0,1-1.9,4.118c-1.287,1.854-4.862,2.579-6.57,1.852a10.98,10.98,0,0,1-4.906-3.7,6.052,6.052,0,0,1-.625-6.228,7.727,7.727,0,0,1,10.845-3.248,3.8,3.8,0,0,1,.539.373,2.835,2.835,0,0,0,3.293.449,17.237,17.237,0,0,1,4.728-1.221,20.763,20.763,0,0,0,5-1.452,2.639,2.639,0,0,0,1.912-2.718,18.9,18.9,0,0,1,.293-4.893C1228.66,969.268,1228.484,966.673,1228.554,963.944ZM1193.878,947.8l.17,0a28.26,28.26,0,0,0,.2,2.9,8,8,0,0,0,.731,2.109.894.894,0,0,0,.825.3.844.844,0,0,0,.405-.732,25.206,25.206,0,0,1-.689-6.084c0-.57-.525-1.133-.768-1.717-.123-.291-.25-.369-.477-.14-.148.146-.371.321-.377.488C1193.86,945.884,1193.878,946.842,1193.878,947.8Zm30.18-2.785a.931.931,0,0,0-.129-.431,3.7,3.7,0,0,0-3.6-1.692c-.216.031-.427.422-.541.69a.833.833,0,0,0,.1.613c.292.57.485.01.7-.1.286-.138.608-.5.819-.444a1.567,1.567,0,0,1,.974.729c.336.9.5,1.867.751,2.8a1.822,1.822,0,0,0,.3.471.991.991,0,0,0,.169-.273C1223.751,946.646,1223.887,945.907,1224.058,945.017Zm-8.35-3.566c.1.4.247,1,.4,1.6.794-.422.408-1.224.578-1.847a1.138,1.138,0,0,0-.13-.593c-.031-.087-.163-.221-.22-.207a.774.774,0,0,0-.453.232A3.008,3.008,0,0,0,1215.708,941.451Zm-13.013,7.216a5.882,5.882,0,0,0-.05-.628.9.9,0,0,0-.159-.269,3.038,3.038,0,0,0-.249.731c-.01.133.181.279.28.417C1202.576,948.836,1202.636,948.75,1202.695,948.667Z" transform="translate(-1157.5 -919.916)" fill-rule="evenodd"/>
</svg>